<?xml version="1.0" encoding="UTF-8" standalone="no"?>
<!-- Created with Inkscape (http://www.inkscape.org/) -->

<svg
   xmlns:dc="http://purl.org/dc/elements/1.1/"
   xmlns:cc="http://creativecommons.org/ns#"
   xmlns:rdf="http://www.w3.org/1999/02/22-rdf-syntax-ns#"
   xmlns:svg="http://www.w3.org/2000/svg"
   xmlns="http://www.w3.org/2000/svg"
   xmlns:sodipodi="http://sodipodi.sourceforge.net/DTD/sodipodi-0.dtd"
   xmlns:inkscape="http://www.inkscape.org/namespaces/inkscape"
   version="1.1"
   id="svg2"
   xml:space="preserve"
   width="134.58946mm"
   height="134.58911mm"
   viewBox="0 0 508.6846 508.68327"
   sodipodi:docname="iris.svg"
   inkscape:version="0.92.3 (2405546, 2018-03-11)"><metadata
     id="metadata8"><rdf:RDF><cc:Work
         rdf:about=""><dc:format>image/svg+xml</dc:format><dc:type
           rdf:resource="http://purl.org/dc/dcmitype/StillImage" /><dc:title></dc:title></cc:Work></rdf:RDF></metadata><defs
     id="defs6"><clipPath
       clipPathUnits="userSpaceOnUse"
       id="clipPath20"><path
         d="M 180,6120 V 1799.17 H 5940 V 6120 Z"
         id="path18"
         inkscape:connector-curvature="0" /></clipPath><clipPath
       clipPathUnits="userSpaceOnUse"
       id="clipPath50"><path
         d="m 1400,5795.83 v -3522.5 h 3522.5 v 3522.5 z"
         id="path48"
         inkscape:connector-curvature="0" /></clipPath><clipPath
       clipPathUnits="userSpaceOnUse"
       id="clipPath76"><path
         d="M 180,6120 V 1799.17 H 5940 V 6120 Z"
         id="path74"
         inkscape:connector-curvature="0" /></clipPath><clipPath
       clipPathUnits="userSpaceOnUse"
       id="clipPath92"><path
         d="m 1400,5795.83 v -3522.5 h 3522.5 v 3522.5 z"
         id="path90"
         inkscape:connector-curvature="0" /></clipPath><clipPath
       clipPathUnits="userSpaceOnUse"
       id="clipPath106"><path
         d="M 180,6120 V 1799.17 H 5940 V 6120 Z"
         id="path104"
         inkscape:connector-curvature="0" /></clipPath><clipPath
       clipPathUnits="userSpaceOnUse"
       id="clipPath126"><path
         d="m 1400,5795.83 v -3522.5 h 3522.5 v 3522.5 z"
         id="path124"
         inkscape:connector-curvature="0" /></clipPath><clipPath
       clipPathUnits="userSpaceOnUse"
       id="clipPath146"><path
         d="M 180,6120 V 1799.17 H 5940 V 6120 Z"
         id="path144"
         inkscape:connector-curvature="0" /></clipPath><clipPath
       clipPathUnits="userSpaceOnUse"
       id="clipPath170"><path
         d="m 1400,5795.83 v -3522.5 h 3522.5 v 3522.5 z"
         id="path168"
         inkscape:connector-curvature="0" /></clipPath><clipPath
       clipPathUnits="userSpaceOnUse"
       id="clipPath196"><path
         d="M 180,6120 V 1799.17 H 5940 V 6120 Z"
         id="path194"
         inkscape:connector-curvature="0" /></clipPath><clipPath
       clipPathUnits="userSpaceOnUse"
       id="clipPath224"><path
         d="m 1400,5795.83 v -3522.5 h 3522.5 v 3522.5 z"
         id="path222"
         inkscape:connector-curvature="0" /></clipPath><clipPath
       clipPathUnits="userSpaceOnUse"
       id="clipPath256"><path
         d="M 180,6120 V 1799.17 H 5940 V 6120 Z"
         id="path254"
         inkscape:connector-curvature="0" /></clipPath><clipPath
       clipPathUnits="userSpaceOnUse"
       id="clipPath296"><path
         d="m 1400,5795.83 v -3522.5 h 3522.5 v 3522.5 z"
         id="path294"
         inkscape:connector-curvature="0" /></clipPath><clipPath
       clipPathUnits="userSpaceOnUse"
       id="clipPath306"><path
         d="M 180,6120 V 1799.17 H 5940 V 6120 Z"
         id="path304"
         inkscape:connector-curvature="0" /></clipPath></defs><sodipodi:namedview
     pagecolor="#ffffff"
     bordercolor="#666666"
     borderopacity="1"
     objecttolerance="10"
     gridtolerance="10"
     guidetolerance="10"
     inkscape:pageopacity="0"
     inkscape:pageshadow="2"
     inkscape:window-width="1408"
     inkscape:window-height="1001"
     id="namedview4"
     showgrid="false"
     inkscape:zoom="1.2642212"
     inkscape:cx="336.21324"
     inkscape:cy="220.3788"
     inkscape:window-x="67"
     inkscape:window-y="27"
     inkscape:window-maximized="0"
     inkscape:current-layer="g218"
     units="mm"
     fit-margin-top="5"
     fit-margin-left="5"
     fit-margin-right="5"
     fit-margin-bottom="5" /><g
     id="g10"
     inkscape:groupmode="layer"
     inkscape:label="iris"
     transform="matrix(1.3333333,0,0,-1.3333333,-167.10236,792.34162)"><g
       id="g14"
       transform="scale(0.1)"><g
         clip-path="url(#clipPath20)"
         id="g16"><path
           inkscape:connector-curvature="0"
           id="path22"
           style="fill:none;stroke:#ffffff;stroke-width:5;stroke-linecap:butt;stroke-linejoin:round;stroke-miterlimit:10;stroke-dasharray:none;stroke-opacity:1"
           d="M 1400,2274.17 V 5795.83 H 4921.67 V 2274.17 H 1400" /><path
           inkscape:connector-curvature="0"
           id="path24"
           style="fill:none;stroke:#000000;stroke-width:5;stroke-linecap:butt;stroke-linejoin:round;stroke-miterlimit:10;stroke-dasharray:none;stroke-opacity:1"
           d="M 1400,2274.17 H 4921.67" /><path
           inkscape:connector-curvature="0"
           id="path26"
           style="fill:none;stroke:#000000;stroke-width:5;stroke-linecap:butt;stroke-linejoin:round;stroke-miterlimit:10;stroke-dasharray:none;stroke-opacity:1"
           d="M 1400,5795.83 H 4921.67" /><path
           inkscape:connector-curvature="0"
           id="path28"
           style="fill:none;stroke:#000000;stroke-width:5;stroke-linecap:butt;stroke-linejoin:round;stroke-miterlimit:10;stroke-dasharray:none;stroke-opacity:1"
           d="M 1400,2274.17 V 5795.83" /><path
           inkscape:connector-curvature="0"
           id="path30"
           style="fill:none;stroke:#000000;stroke-width:5;stroke-linecap:butt;stroke-linejoin:round;stroke-miterlimit:10;stroke-dasharray:none;stroke-opacity:1"
           d="M 4921.67,2274.17 V 5795.83" /><path
           inkscape:connector-curvature="0"
           id="path32"
           style="fill:none;stroke:#000000;stroke-width:5;stroke-linecap:butt;stroke-linejoin:round;stroke-miterlimit:10;stroke-dasharray:none;stroke-opacity:1"
           d="M 1400,2274.17 H 4921.67" /><path
           inkscape:connector-curvature="0"
           id="path34"
           style="fill:none;stroke:#000000;stroke-width:5;stroke-linecap:butt;stroke-linejoin:round;stroke-miterlimit:10;stroke-dasharray:none;stroke-opacity:1"
           d="M 1400,2274.17 V 5795.83" /><path
           inkscape:connector-curvature="0"
           id="path36"
           style="fill:none;stroke:#000000;stroke-width:5;stroke-linecap:butt;stroke-linejoin:round;stroke-miterlimit:10;stroke-dasharray:none;stroke-opacity:1"
           d="M 1400,2274.17 H 4921.67" /><path
           inkscape:connector-curvature="0"
           id="path38"
           style="fill:none;stroke:#000000;stroke-width:5;stroke-linecap:butt;stroke-linejoin:round;stroke-miterlimit:10;stroke-dasharray:none;stroke-opacity:1"
           d="M 1400,5795.83 H 4921.67" /><path
           inkscape:connector-curvature="0"
           id="path40"
           style="fill:none;stroke:#000000;stroke-width:5;stroke-linecap:butt;stroke-linejoin:round;stroke-miterlimit:10;stroke-dasharray:none;stroke-opacity:1"
           d="M 1400,2274.17 V 5795.83" /><path
           inkscape:connector-curvature="0"
           id="path42"
           style="fill:none;stroke:#000000;stroke-width:5;stroke-linecap:butt;stroke-linejoin:round;stroke-miterlimit:10;stroke-dasharray:none;stroke-opacity:1"
           d="M 4921.67,2274.17 V 5795.83" /></g></g><g
       id="g44"
       transform="scale(0.1)"><g
         clip-path="url(#clipPath50)"
         id="g46"><path
           inkscape:connector-curvature="0"
           id="path52"
           style="fill:#333333;fill-opacity:1;fill-rule:evenodd;stroke:none"
           d="M 1400,2979.17 3160.83,3155 v 704.17 L 1400,4035" /><path
           inkscape:connector-curvature="0"
           id="path54"
           style="fill:none;stroke:#000000;stroke-width:5;stroke-linecap:butt;stroke-linejoin:round;stroke-miterlimit:10;stroke-dasharray:none;stroke-opacity:1"
           d="M 1400,2979.17 3160.83,3155 v 704.17 L 1400,4035 V 2979.17" /><path
           inkscape:connector-curvature="0"
           id="path56"
           style="fill:#333333;fill-opacity:1;fill-rule:evenodd;stroke:none"
           d="M 3512.5,3155 H 3865 v 704.168 h -352.5 z" /><path
           inkscape:connector-curvature="0"
           id="path58"
           style="fill:none;stroke:#000000;stroke-width:5;stroke-linecap:butt;stroke-linejoin:round;stroke-miterlimit:10;stroke-dasharray:none;stroke-opacity:1"
           d="M 3512.5,3155 H 3865 v 704.17 H 3512.5 V 3155" /><path
           inkscape:connector-curvature="0"
           id="path60"
           style="fill:#333333;fill-opacity:1;fill-rule:evenodd;stroke:none"
           d="m 4216.67,3155 705,-175.83 V 4035 l -705,-175.83" /><path
           inkscape:connector-curvature="0"
           id="path62"
           style="fill:none;stroke:#000000;stroke-width:5;stroke-linecap:butt;stroke-linejoin:round;stroke-miterlimit:10;stroke-dasharray:none;stroke-opacity:1"
           d="m 4216.67,3155 705,-175.83 V 4035 l -705,-175.83 V 3155" /><path
           inkscape:connector-curvature="0"
           id="path64"
           style="fill:none;stroke:#000000;stroke-width:10;stroke-linecap:butt;stroke-linejoin:round;stroke-miterlimit:10;stroke-dasharray:none;stroke-opacity:1"
           d="M 1400,2979.17 3160.83,3155 v 704.17 L 1400,4035 V 2979.17" /><path
           inkscape:connector-curvature="0"
           id="path66"
           style="fill:none;stroke:#000000;stroke-width:10;stroke-linecap:butt;stroke-linejoin:round;stroke-miterlimit:10;stroke-dasharray:none;stroke-opacity:1"
           d="M 3512.5,3155 H 3865 v 704.17 H 3512.5 V 3155" /><path
           inkscape:connector-curvature="0"
           id="path68"
           style="fill:none;stroke:#000000;stroke-width:10;stroke-linecap:butt;stroke-linejoin:round;stroke-miterlimit:10;stroke-dasharray:none;stroke-opacity:1"
           d="m 4216.67,3155 705,-175.83 V 4035 l -705,-175.83 V 3155" /></g></g><g
       id="g70"
       transform="scale(0.1)"><g
         clip-path="url(#clipPath76)"
         id="g72"><path
           inkscape:connector-curvature="0"
           id="path78"
           style="fill:#ff0000;fill-opacity:1;fill-rule:nonzero;stroke:none"
           d="m 4644.16,5444.16 c 0,-41.41 -33.58,-75 -75,-75 -41.41,0 -75,33.59 -75,75 0,41.42 33.59,75 75,75 41.42,0 75,-33.58 75,-75" /><path
           inkscape:connector-curvature="0"
           id="path80"
           style="fill:none;stroke:#000000;stroke-width:5;stroke-linecap:butt;stroke-linejoin:round;stroke-miterlimit:10;stroke-dasharray:none;stroke-opacity:1"
           d="m 4644.16,5444.16 c 0,-41.41 -33.58,-75 -75,-75 -41.41,0 -75,33.59 -75,75 0,41.42 33.59,75 75,75 41.42,0 75,-33.58 75,-75" /><path
           inkscape:connector-curvature="0"
           id="path82"
           style="fill:#00ff00;fill-opacity:1;fill-rule:nonzero;stroke:none"
           d="m 1826.66,2626.66 c 0,-41.41 -33.58,-75 -75,-75 -41.41,0 -75,33.59 -75,75 0,41.42 33.59,75 75,75 41.42,0 75,-33.58 75,-75" /><path
           inkscape:connector-curvature="0"
           id="path84"
           style="fill:none;stroke:#000000;stroke-width:5;stroke-linecap:butt;stroke-linejoin:round;stroke-miterlimit:10;stroke-dasharray:none;stroke-opacity:1"
           d="m 1826.66,2626.66 c 0,-41.41 -33.58,-75 -75,-75 -41.41,0 -75,33.59 -75,75 0,41.42 33.59,75 75,75 41.42,0 75,-33.58 75,-75" /></g></g><g
       id="g86"
       transform="scale(0.1)"><g
         clip-path="url(#clipPath92)"
         id="g88"><path
           inkscape:connector-curvature="0"
           id="path94"
           style="fill:#ffff96;fill-opacity:1;fill-rule:evenodd;stroke:none"
           d="m 1400,2274.17 h 3521.67 v 705 l -663.34,165 -1055,15 -1803.33,-180 v -705" /><path
           inkscape:connector-curvature="0"
           id="path96"
           style="fill:none;stroke:#000000;stroke-width:10;stroke-linecap:butt;stroke-linejoin:round;stroke-miterlimit:10;stroke-dasharray:none;stroke-opacity:1"
           d="m 1400,2274.17 h 3521.67 v 705 l -663.34,165 -1055,15 -1803.33,-180 v -705" /><path
           inkscape:connector-curvature="0"
           id="path98"
           style="fill:none;stroke:#000000;stroke-width:20;stroke-linecap:butt;stroke-linejoin:round;stroke-miterlimit:10;stroke-dasharray:5, 40;stroke-dashoffset:0;stroke-opacity:1"
           d="m 1400,2274.17 h 3521.67 v 705 l -663.34,165 -1055,15 -1803.33,-180 v -705" /></g></g><g
       id="g100"
       transform="scale(0.1)"><g
         clip-path="url(#clipPath106)"
         id="g102"><path
           inkscape:connector-curvature="0"
           id="path108"
           style="fill:#000000;fill-opacity:1;fill-rule:nonzero;stroke:none"
           d="m 1791.66,2626.66 c 0,-22.09 -17.91,-40 -40,-40 -22.09,0 -40,17.91 -40,40 0,22.09 17.91,40 40,40 22.09,0 40,-17.91 40,-40" /><path
           inkscape:connector-curvature="0"
           id="path110"
           style="fill:none;stroke:#000000;stroke-width:5;stroke-linecap:butt;stroke-linejoin:round;stroke-miterlimit:10;stroke-dasharray:none;stroke-opacity:1"
           d="m 1791.66,2626.66 c 0,-22.09 -17.91,-40 -40,-40 -22.09,0 -40,17.91 -40,40 0,22.09 17.91,40 40,40 22.09,0 40,-17.91 40,-40" /><path
           inkscape:connector-curvature="0"
           id="path112"
           style="fill:#ff0000;fill-opacity:1;fill-rule:nonzero;stroke:none"
           d="m 4644.16,5444.16 c 0,-41.41 -33.58,-75 -75,-75 -41.41,0 -75,33.59 -75,75 0,41.42 33.59,75 75,75 41.42,0 75,-33.58 75,-75" /><path
           inkscape:connector-curvature="0"
           id="path114"
           style="fill:none;stroke:#000000;stroke-width:5;stroke-linecap:butt;stroke-linejoin:round;stroke-miterlimit:10;stroke-dasharray:none;stroke-opacity:1"
           d="m 4644.16,5444.16 c 0,-41.41 -33.58,-75 -75,-75 -41.41,0 -75,33.59 -75,75 0,41.42 33.59,75 75,75 41.42,0 75,-33.58 75,-75" /><path
           inkscape:connector-curvature="0"
           id="path116"
           style="fill:#00ff00;fill-opacity:1;fill-rule:nonzero;stroke:none"
           d="m 1826.66,2626.66 c 0,-41.41 -33.58,-75 -75,-75 -41.41,0 -75,33.59 -75,75 0,41.42 33.59,75 75,75 41.42,0 75,-33.58 75,-75" /><path
           inkscape:connector-curvature="0"
           id="path118"
           style="fill:none;stroke:#000000;stroke-width:5;stroke-linecap:butt;stroke-linejoin:round;stroke-miterlimit:10;stroke-dasharray:none;stroke-opacity:1"
           d="m 1826.66,2626.66 c 0,-41.41 -33.58,-75 -75,-75 -41.41,0 -75,33.59 -75,75 0,41.42 33.59,75 75,75 41.42,0 75,-33.58 75,-75" /></g></g><g
       id="g120"
       transform="scale(0.1)"><g
         clip-path="url(#clipPath126)"
         id="g122"><path
           inkscape:connector-curvature="0"
           id="path128"
           style="fill:#ffff96;fill-opacity:1;fill-rule:evenodd;stroke:none"
           d="m 1400,2274.17 h 3521.67 v 705 l -663.34,165 -1055,15 -1803.33,-180 v -705" /><path
           inkscape:connector-curvature="0"
           id="path130"
           style="fill:none;stroke:#000000;stroke-width:10;stroke-linecap:butt;stroke-linejoin:round;stroke-miterlimit:10;stroke-dasharray:none;stroke-opacity:1"
           d="m 1400,2274.17 h 3521.67 v 705 l -663.34,165 -1055,15 -1803.33,-180 v -705" /><path
           inkscape:connector-curvature="0"
           id="path132"
           style="fill:#ffff96;fill-opacity:1;fill-rule:evenodd;stroke:none"
           d="m 1400,4037.5 1815.83,-184.17 1055.84,20.84 650,171.66 v 1750 H 1400 V 4037.5" /><path
           inkscape:connector-curvature="0"
           id="path134"
           style="fill:none;stroke:#000000;stroke-width:10;stroke-linecap:butt;stroke-linejoin:round;stroke-miterlimit:10;stroke-dasharray:none;stroke-opacity:1"
           d="m 1400,4037.5 1815.83,-184.17 1055.84,20.84 650,171.66 v 1750 H 1400 V 4037.5" /><path
           inkscape:connector-curvature="0"
           id="path136"
           style="fill:none;stroke:#000000;stroke-width:20;stroke-linecap:butt;stroke-linejoin:round;stroke-miterlimit:10;stroke-dasharray:5, 40;stroke-dashoffset:0;stroke-opacity:1"
           d="m 1400,2274.17 h 3521.67 v 705 l -663.34,165 -1055,15 -1803.33,-180 v -705" /><path
           inkscape:connector-curvature="0"
           id="path138"
           style="fill:none;stroke:#000000;stroke-width:20;stroke-linecap:butt;stroke-linejoin:round;stroke-miterlimit:10;stroke-dasharray:5, 40;stroke-dashoffset:0;stroke-opacity:1"
           d="m 1400,4037.5 1815.83,-184.17 1055.84,20.84 650,171.66 v 1750 H 1400 V 4037.5" /></g></g><g
       id="g140"
       transform="scale(0.1)"><g
         clip-path="url(#clipPath146)"
         id="g142"><path
           inkscape:connector-curvature="0"
           id="path148"
           style="fill:#000000;fill-opacity:1;fill-rule:nonzero;stroke:none"
           d="m 1791.66,2626.66 c 0,-22.09 -17.91,-40 -40,-40 -22.09,0 -40,17.91 -40,40 0,22.09 17.91,40 40,40 22.09,0 40,-17.91 40,-40" /><path
           inkscape:connector-curvature="0"
           id="path150"
           style="fill:none;stroke:#000000;stroke-width:5;stroke-linecap:butt;stroke-linejoin:round;stroke-miterlimit:10;stroke-dasharray:none;stroke-opacity:1"
           d="m 1791.66,2626.66 c 0,-22.09 -17.91,-40 -40,-40 -22.09,0 -40,17.91 -40,40 0,22.09 17.91,40 40,40 22.09,0 40,-17.91 40,-40" /><path
           inkscape:connector-curvature="0"
           id="path152"
           style="fill:#000000;fill-opacity:1;fill-rule:nonzero;stroke:none"
           d="m 4609.16,5444.16 c 0,-22.09 -17.91,-40 -40,-40 -22.09,0 -40,17.91 -40,40 0,22.09 17.91,40 40,40 22.09,0 40,-17.91 40,-40" /><path
           inkscape:connector-curvature="0"
           id="path154"
           style="fill:none;stroke:#000000;stroke-width:5;stroke-linecap:butt;stroke-linejoin:round;stroke-miterlimit:10;stroke-dasharray:none;stroke-opacity:1"
           d="m 4609.16,5444.16 c 0,-22.09 -17.91,-40 -40,-40 -22.09,0 -40,17.91 -40,40 0,22.09 17.91,40 40,40 22.09,0 40,-17.91 40,-40" /><path
           inkscape:connector-curvature="0"
           id="path156"
           style="fill:#ff0000;fill-opacity:1;fill-rule:nonzero;stroke:none"
           d="m 4644.16,5444.16 c 0,-41.41 -33.58,-75 -75,-75 -41.41,0 -75,33.59 -75,75 0,41.42 33.59,75 75,75 41.42,0 75,-33.58 75,-75" /><path
           inkscape:connector-curvature="0"
           id="path158"
           style="fill:none;stroke:#000000;stroke-width:5;stroke-linecap:butt;stroke-linejoin:round;stroke-miterlimit:10;stroke-dasharray:none;stroke-opacity:1"
           d="m 4644.16,5444.16 c 0,-41.41 -33.58,-75 -75,-75 -41.41,0 -75,33.59 -75,75 0,41.42 33.59,75 75,75 41.42,0 75,-33.58 75,-75" /><path
           inkscape:connector-curvature="0"
           id="path160"
           style="fill:#00ff00;fill-opacity:1;fill-rule:nonzero;stroke:none"
           d="m 1826.66,2626.66 c 0,-41.41 -33.58,-75 -75,-75 -41.41,0 -75,33.59 -75,75 0,41.42 33.59,75 75,75 41.42,0 75,-33.58 75,-75" /><path
           inkscape:connector-curvature="0"
           id="path162"
           style="fill:none;stroke:#000000;stroke-width:5;stroke-linecap:butt;stroke-linejoin:round;stroke-miterlimit:10;stroke-dasharray:none;stroke-opacity:1"
           d="m 1826.66,2626.66 c 0,-41.41 -33.58,-75 -75,-75 -41.41,0 -75,33.59 -75,75 0,41.42 33.59,75 75,75 41.42,0 75,-33.58 75,-75" /></g></g><g
       id="g164"
       transform="scale(0.1)"><g
         clip-path="url(#clipPath170)"
         id="g166"><path
           inkscape:connector-curvature="0"
           id="path172"
           style="fill:#ffff96;fill-opacity:1;fill-rule:evenodd;stroke:none"
           d="m 1400,2274.17 h 3521.67 v 705 l -663.34,165 -1055,15 -1803.33,-180 v -705" /><path
           inkscape:connector-curvature="0"
           id="path174"
           style="fill:none;stroke:#000000;stroke-width:10;stroke-linecap:butt;stroke-linejoin:round;stroke-miterlimit:10;stroke-dasharray:none;stroke-opacity:1"
           d="m 1400,2274.17 h 3521.67 v 705 l -663.34,165 -1055,15 -1803.33,-180 v -705" /><path
           inkscape:connector-curvature="0"
           id="path176"
           style="fill:#ffff96;fill-opacity:1;fill-rule:evenodd;stroke:none"
           d="m 1400,4037.5 1815.83,-184.17 1055.84,20.84 650,171.66 v 1750 H 1400 V 4037.5" /><path
           inkscape:connector-curvature="0"
           id="path178"
           style="fill:none;stroke:#000000;stroke-width:10;stroke-linecap:butt;stroke-linejoin:round;stroke-miterlimit:10;stroke-dasharray:none;stroke-opacity:1"
           d="m 1400,4037.5 1815.83,-184.17 1055.84,20.84 650,171.66 v 1750 H 1400 V 4037.5" /><path
           inkscape:connector-curvature="0"
           id="path180"
           style="fill:#ffff96;fill-opacity:1;fill-rule:evenodd;stroke:none"
           d="m 3845,5795.83 35.83,-3521.66 h 320 l 35.84,3521.66 H 3845" /><path
           inkscape:connector-curvature="0"
           id="path182"
           style="fill:none;stroke:#000000;stroke-width:10;stroke-linecap:butt;stroke-linejoin:round;stroke-miterlimit:10;stroke-dasharray:none;stroke-opacity:1"
           d="m 3845,5795.83 35.83,-3521.66 h 320 l 35.84,3521.66 H 3845 v 0" /><path
           inkscape:connector-curvature="0"
           id="path184"
           style="fill:none;stroke:#000000;stroke-width:20;stroke-linecap:butt;stroke-linejoin:round;stroke-miterlimit:10;stroke-dasharray:5, 40;stroke-dashoffset:0;stroke-opacity:1"
           d="m 1400,2274.17 h 3521.67 v 705 l -663.34,165 -1055,15 -1803.33,-180 v -705" /><path
           inkscape:connector-curvature="0"
           id="path186"
           style="fill:none;stroke:#000000;stroke-width:20;stroke-linecap:butt;stroke-linejoin:round;stroke-miterlimit:10;stroke-dasharray:5, 40;stroke-dashoffset:0;stroke-opacity:1"
           d="m 1400,4037.5 1815.83,-184.17 1055.84,20.84 650,171.66 v 1750 H 1400 V 4037.5" /><path
           inkscape:connector-curvature="0"
           id="path188"
           style="fill:none;stroke:#000000;stroke-width:20;stroke-linecap:butt;stroke-linejoin:round;stroke-miterlimit:10;stroke-dasharray:5, 40;stroke-dashoffset:0;stroke-opacity:1"
           d="m 3845,5795.83 35.83,-3521.66 h 320 l 35.84,3521.66 H 3845" /></g></g><g
       id="g190"
       transform="scale(0.1)"><g
         clip-path="url(#clipPath196)"
         id="g192"><path
           inkscape:connector-curvature="0"
           id="path198"
           style="fill:#000000;fill-opacity:1;fill-rule:nonzero;stroke:none"
           d="m 1791.66,2626.66 c 0,-22.09 -17.91,-40 -40,-40 -22.09,0 -40,17.91 -40,40 0,22.09 17.91,40 40,40 22.09,0 40,-17.91 40,-40" /><path
           inkscape:connector-curvature="0"
           id="path200"
           style="fill:none;stroke:#000000;stroke-width:5;stroke-linecap:butt;stroke-linejoin:round;stroke-miterlimit:10;stroke-dasharray:none;stroke-opacity:1"
           d="m 1791.66,2626.66 c 0,-22.09 -17.91,-40 -40,-40 -22.09,0 -40,17.91 -40,40 0,22.09 17.91,40 40,40 22.09,0 40,-17.91 40,-40" /><path
           inkscape:connector-curvature="0"
           id="path202"
           style="fill:#000000;fill-opacity:1;fill-rule:nonzero;stroke:none"
           d="m 4609.16,5444.16 c 0,-22.09 -17.91,-40 -40,-40 -22.09,0 -40,17.91 -40,40 0,22.09 17.91,40 40,40 22.09,0 40,-17.91 40,-40" /><path
           inkscape:connector-curvature="0"
           id="path204"
           style="fill:none;stroke:#000000;stroke-width:5;stroke-linecap:butt;stroke-linejoin:round;stroke-miterlimit:10;stroke-dasharray:none;stroke-opacity:1"
           d="m 4609.16,5444.16 c 0,-22.09 -17.91,-40 -40,-40 -22.09,0 -40,17.91 -40,40 0,22.09 17.91,40 40,40 22.09,0 40,-17.91 40,-40" /><path
           inkscape:connector-curvature="0"
           id="path206"
           style="fill:#000000;fill-opacity:1;fill-rule:nonzero;stroke:none"
           d="m 4080.83,3330.83 c 0,-22.09 -17.91,-40 -40,-40 -22.09,0 -40,17.91 -40,40 0,22.09 17.91,40 40,40 22.09,0 40,-17.91 40,-40" /><path
           inkscape:connector-curvature="0"
           id="path208"
           style="fill:none;stroke:#000000;stroke-width:5;stroke-linecap:butt;stroke-linejoin:round;stroke-miterlimit:10;stroke-dasharray:none;stroke-opacity:1"
           d="m 4080.83,3330.83 c 0,-22.09 -17.91,-40 -40,-40 -22.09,0 -40,17.91 -40,40 0,22.09 17.91,40 40,40 22.09,0 40,-17.91 40,-40" /><path
           inkscape:connector-curvature="0"
           id="path210"
           style="fill:#ff0000;fill-opacity:1;fill-rule:nonzero;stroke:none"
           d="m 4644.16,5444.16 c 0,-41.41 -33.58,-75 -75,-75 -41.41,0 -75,33.59 -75,75 0,41.42 33.59,75 75,75 41.42,0 75,-33.58 75,-75" /><path
           inkscape:connector-curvature="0"
           id="path212"
           style="fill:none;stroke:#000000;stroke-width:5;stroke-linecap:butt;stroke-linejoin:round;stroke-miterlimit:10;stroke-dasharray:none;stroke-opacity:1"
           d="m 4644.16,5444.16 c 0,-41.41 -33.58,-75 -75,-75 -41.41,0 -75,33.59 -75,75 0,41.42 33.59,75 75,75 41.42,0 75,-33.58 75,-75" /><path
           inkscape:connector-curvature="0"
           id="path214"
           style="fill:#00ff00;fill-opacity:1;fill-rule:nonzero;stroke:none"
           d="m 1826.66,2626.66 c 0,-41.41 -33.58,-75 -75,-75 -41.41,0 -75,33.59 -75,75 0,41.42 33.59,75 75,75 41.42,0 75,-33.58 75,-75" /><path
           inkscape:connector-curvature="0"
           id="path216"
           style="fill:none;stroke:#000000;stroke-width:5;stroke-linecap:butt;stroke-linejoin:round;stroke-miterlimit:10;stroke-dasharray:none;stroke-opacity:1"
           d="m 1826.66,2626.66 c 0,-41.41 -33.58,-75 -75,-75 -41.41,0 -75,33.59 -75,75 0,41.42 33.59,75 75,75 41.42,0 75,-33.58 75,-75" /></g></g><g
       id="g218"
       transform="scale(0.1)"><path
         d="m 1400,2274.17 h 3521.67 v 705 l -663.34,165 -1055,15 -1803.33,-180 v -705"
         style="fill:#ffff96;fill-opacity:1;fill-rule:evenodd;stroke:none"
         id="path226"
         inkscape:connector-curvature="0" /><path
         d="m 1400,2274.17 h 3521.67 v 705 l -663.34,165 -1055,15 -1803.33,-180 v -705"
         style="fill:none;stroke:#000000;stroke-width:10;stroke-linecap:butt;stroke-linejoin:round;stroke-miterlimit:10;stroke-dasharray:none;stroke-opacity:1"
         id="path228"
         inkscape:connector-curvature="0" /><path
         d="m 1400,4037.5 1815.83,-184.17 1055.84,20.84 650,171.66 v 1750 H 1400 V 4037.5"
         style="fill:#ffff96;fill-opacity:1;fill-rule:evenodd;stroke:none"
         id="path230"
         inkscape:connector-curvature="0" /><path
         d="m 1400,4037.5 1815.83,-184.17 1055.84,20.84 650,171.66 v 1750 H 1400 V 4037.5"
         style="fill:none;stroke:#000000;stroke-width:10;stroke-linecap:butt;stroke-linejoin:round;stroke-miterlimit:10;stroke-dasharray:none;stroke-opacity:1"
         id="path232"
         inkscape:connector-curvature="0" /><path
         d="m 3845,5795.83 35.83,-3521.66 h 320 l 35.84,3521.66 H 3845"
         style="fill:#ffff96;fill-opacity:1;fill-rule:evenodd;stroke:none"
         id="path234"
         inkscape:connector-curvature="0" /><path
         d="m 3845,5795.83 35.83,-3521.66 h 320 l 35.84,3521.66 H 3845 v 0"
         style="fill:none;stroke:#000000;stroke-width:10;stroke-linecap:butt;stroke-linejoin:round;stroke-miterlimit:10;stroke-dasharray:none;stroke-opacity:1"
         id="path236"
         inkscape:connector-curvature="0" /><path
         d="m 3140.83,5795.83 35.84,-3521.66 h 320 l 35,3521.66 h -390.84"
         style="fill:#ffff96;fill-opacity:1;fill-rule:evenodd;stroke:none"
         id="path238"
         inkscape:connector-curvature="0" /><path
         d="m 3140.83,5795.83 35.84,-3521.66 h 320 l 35,3521.66 h -390.84 v 0"
         style="fill:none;stroke:#000000;stroke-width:10;stroke-linecap:butt;stroke-linejoin:round;stroke-miterlimit:10;stroke-dasharray:none;stroke-opacity:1"
         id="path240"
         inkscape:connector-curvature="0" /></g><g
       id="g250"
       transform="scale(0.1)"><g
         clip-path="url(#clipPath256)"
         id="g252"><path
           inkscape:connector-curvature="0"
           id="path258"
           style="fill:#000000;fill-opacity:1;fill-rule:nonzero;stroke:none"
           d="m 1791.66,2626.66 c 0,-22.09 -17.91,-40 -40,-40 -22.09,0 -40,17.91 -40,40 0,22.09 17.91,40 40,40 22.09,0 40,-17.91 40,-40" /><path
           inkscape:connector-curvature="0"
           id="path260"
           style="fill:none;stroke:#000000;stroke-width:5;stroke-linecap:butt;stroke-linejoin:round;stroke-miterlimit:10;stroke-dasharray:none;stroke-opacity:1"
           d="m 1791.66,2626.66 c 0,-22.09 -17.91,-40 -40,-40 -22.09,0 -40,17.91 -40,40 0,22.09 17.91,40 40,40 22.09,0 40,-17.91 40,-40" /><path
           inkscape:connector-curvature="0"
           id="path262"
           style="fill:#000000;fill-opacity:1;fill-rule:nonzero;stroke:none"
           d="m 4609.16,5444.16 c 0,-22.09 -17.91,-40 -40,-40 -22.09,0 -40,17.91 -40,40 0,22.09 17.91,40 40,40 22.09,0 40,-17.91 40,-40" /><path
           inkscape:connector-curvature="0"
           id="path264"
           style="fill:none;stroke:#000000;stroke-width:5;stroke-linecap:butt;stroke-linejoin:round;stroke-miterlimit:10;stroke-dasharray:none;stroke-opacity:1"
           d="m 4609.16,5444.16 c 0,-22.09 -17.91,-40 -40,-40 -22.09,0 -40,17.91 -40,40 0,22.09 17.91,40 40,40 22.09,0 40,-17.91 40,-40" /><path
           inkscape:connector-curvature="0"
           id="path266"
           style="fill:#000000;fill-opacity:1;fill-rule:nonzero;stroke:none"
           d="m 4080.83,3330.83 c 0,-22.09 -17.91,-40 -40,-40 -22.09,0 -40,17.91 -40,40 0,22.09 17.91,40 40,40 22.09,0 40,-17.91 40,-40" /><path
           inkscape:connector-curvature="0"
           id="path268"
           style="fill:none;stroke:#000000;stroke-width:5;stroke-linecap:butt;stroke-linejoin:round;stroke-miterlimit:10;stroke-dasharray:none;stroke-opacity:1"
           d="m 4080.83,3330.83 c 0,-22.09 -17.91,-40 -40,-40 -22.09,0 -40,17.91 -40,40 0,22.09 17.91,40 40,40 22.09,0 40,-17.91 40,-40" /><path
           inkscape:connector-curvature="0"
           id="path270"
           style="fill:#000000;fill-opacity:1;fill-rule:nonzero;stroke:none"
           d="m 3376.66,3507.5 c 0,-22.09 -17.91,-40 -40,-40 -22.09,0 -40,17.91 -40,40 0,22.09 17.91,40 40,40 22.09,0 40,-17.91 40,-40" /><path
           inkscape:connector-curvature="0"
           id="path272"
           style="fill:none;stroke:#000000;stroke-width:5;stroke-linecap:butt;stroke-linejoin:round;stroke-miterlimit:10;stroke-dasharray:none;stroke-opacity:1"
           d="m 3376.66,3507.5 c 0,-22.09 -17.91,-40 -40,-40 -22.09,0 -40,17.91 -40,40 0,22.09 17.91,40 40,40 22.09,0 40,-17.91 40,-40" /><path
           inkscape:connector-curvature="0"
           id="path274"
           style="fill:#ff0000;fill-opacity:1;fill-rule:nonzero;stroke:none"
           d="m 4644.16,5444.16 c 0,-41.41 -33.58,-75 -75,-75 -41.41,0 -75,33.59 -75,75 0,41.42 33.59,75 75,75 41.42,0 75,-33.58 75,-75" /><path
           inkscape:connector-curvature="0"
           id="path276"
           style="fill:none;stroke:#000000;stroke-width:5;stroke-linecap:butt;stroke-linejoin:round;stroke-miterlimit:10;stroke-dasharray:none;stroke-opacity:1"
           d="m 4644.16,5444.16 c 0,-41.41 -33.58,-75 -75,-75 -41.41,0 -75,33.59 -75,75 0,41.42 33.59,75 75,75 41.42,0 75,-33.58 75,-75" /><path
           inkscape:connector-curvature="0"
           id="path278"
           style="fill:#00ff00;fill-opacity:1;fill-rule:nonzero;stroke:none"
           d="m 1826.66,2626.66 c 0,-41.41 -33.58,-75 -75,-75 -41.41,0 -75,33.59 -75,75 0,41.42 33.59,75 75,75 41.42,0 75,-33.58 75,-75" /><path
           inkscape:connector-curvature="0"
           id="path280"
           style="fill:none;stroke:#000000;stroke-width:5;stroke-linecap:butt;stroke-linejoin:round;stroke-miterlimit:10;stroke-dasharray:none;stroke-opacity:1"
           d="m 1826.66,2626.66 c 0,-41.41 -33.58,-75 -75,-75 -41.41,0 -75,33.59 -75,75 0,41.42 33.59,75 75,75 41.42,0 75,-33.58 75,-75" /><path
           inkscape:connector-curvature="0"
           id="path282"
           style="fill:#ff0000;fill-opacity:1;fill-rule:nonzero;stroke:none"
           d="m 4644.16,5444.16 c 0,-41.41 -33.58,-75 -75,-75 -41.41,0 -75,33.59 -75,75 0,41.42 33.59,75 75,75 41.42,0 75,-33.58 75,-75" /><path
           inkscape:connector-curvature="0"
           id="path284"
           style="fill:none;stroke:#000000;stroke-width:5;stroke-linecap:butt;stroke-linejoin:round;stroke-miterlimit:10;stroke-dasharray:none;stroke-opacity:1"
           d="m 4644.16,5444.16 c 0,-41.41 -33.58,-75 -75,-75 -41.41,0 -75,33.59 -75,75 0,41.42 33.59,75 75,75 41.42,0 75,-33.58 75,-75" /><path
           inkscape:connector-curvature="0"
           id="path286"
           style="fill:#00ff00;fill-opacity:1;fill-rule:nonzero;stroke:none"
           d="m 1826.66,2626.66 c 0,-41.41 -33.58,-75 -75,-75 -41.41,0 -75,33.59 -75,75 0,41.42 33.59,75 75,75 41.42,0 75,-33.58 75,-75" /><path
           inkscape:connector-curvature="0"
           id="path288"
           style="fill:none;stroke:#000000;stroke-width:5;stroke-linecap:butt;stroke-linejoin:round;stroke-miterlimit:10;stroke-dasharray:none;stroke-opacity:1"
           d="m 1826.66,2626.66 c 0,-41.41 -33.58,-75 -75,-75 -41.41,0 -75,33.59 -75,75 0,41.42 33.59,75 75,75 41.42,0 75,-33.58 75,-75" /></g></g><g
       id="g290"
       transform="scale(0.1)"><g
         clip-path="url(#clipPath296)"
         id="g292"><path
           inkscape:connector-curvature="0"
           id="path298"
           style="fill:none;stroke:#0000ff;stroke-width:30;stroke-linecap:butt;stroke-linejoin:round;stroke-miterlimit:10;stroke-dasharray:none;stroke-opacity:1"
           d="m 1751.67,2626.67 h 1.66 l 2.5,0.83 5.84,0.83 8.33,0.84 11.67,1.66 15.83,2.5 20.83,3.34 24.17,4.16 29.17,5 33.33,6.67 38.33,7.5 41.67,8.33 46.67,10 50,10.84 54.16,12.5 56.67,14.16 59.17,15 62.5,16.67 64.16,19.17 65,20 66.67,21.66 66.67,23.34 66.66,25 66.67,26.66 65,28.34 63.33,30 62.5,31.66 59.17,33.34 56.67,35 54.16,36.66 50,37.5 46.67,40 42.5,40.84 39.17,42.5 35,44.16 30.83,45 26.67,46.67 22.5,47.5 19.16,49.17 15.84,50 11.66,50.83 9.17,50.83 5.83,52.5 3.34,53.34 0.83,54.16 -0.83,54.17 -2.5,54.17 -3.34,55 -4.16,55 -5,55 -5,55 -4.17,55 -4.17,55 -2.5,55 -1.66,54.16 0.83,53.34 2.5,52.5 5,52.5 7.5,51.66 10,50.84 13.33,49.16 16.67,49.17 20,47.5 23.33,45.83 26.67,45 29.17,43.34 33.33,42.5 35.83,40.83 39.17,39.17 40.83,37.5 44.17,35.83 45,34.17 47.5,32.5 48.33,30.83 49.17,29.17 49.17,27.5 50,25.83 49.16,24.17 48.34,21.66 47.5,20.84 45.83,18.33 43.33,17.5 41.67,15 39.17,14.17 35.83,11.66 32.5,10.84 30,9.16 26.67,8.34 22.5,5.83 20,5.83 15.83,4.17 12.5,3.33 10,2.5 6.67,1.67 4.16,0.83 2.5,0.84 h 0.84" /></g></g><g
       id="g300"
       transform="scale(0.1)"><g
         clip-path="url(#clipPath306)"
         id="g302"><path
           inkscape:connector-curvature="0"
           id="path308"
           style="fill:#0000ff;fill-opacity:1;fill-rule:nonzero;stroke:none"
           d="m 1786.66,2626.66 c 0,-19.32 -15.67,-35 -35,-35 -19.32,0 -35,15.68 -35,35 0,19.33 15.68,35 35,35 19.33,0 35,-15.67 35,-35" /><path
           inkscape:connector-curvature="0"
           id="path310"
           style="fill:#0000ff;fill-opacity:1;fill-rule:nonzero;stroke:none"
           d="m 3202.5,3155.83 c 0,-19.33 -15.67,-35 -35,-35 -19.33,0 -35,15.67 -35,35 0,19.33 15.67,35 35,35 19.33,0 35,-15.67 35,-35" /><path
           inkscape:connector-curvature="0"
           id="path312"
           style="fill:#0000ff;fill-opacity:1;fill-rule:nonzero;stroke:none"
           d="m 3557.5,4828.33 c 0,-19.33 -15.67,-35 -35,-35 -19.33,0 -35,15.67 -35,35 0,19.33 15.67,35 35,35 19.33,0 35,-15.67 35,-35" /><path
           inkscape:connector-curvature="0"
           id="path314"
           style="fill:#0000ff;fill-opacity:1;fill-rule:nonzero;stroke:none"
           d="m 4604.16,5444.16 c 0,-19.32 -15.67,-35 -35,-35 -19.32,0 -35,15.68 -35,35 0,19.33 15.68,35 35,35 19.33,0 35,-15.67 35,-35" /><path
           inkscape:connector-curvature="0"
           id="path316"
           style="fill:none;stroke:#0000ff;stroke-width:5;stroke-linecap:butt;stroke-linejoin:round;stroke-miterlimit:10;stroke-dasharray:none;stroke-opacity:1"
           d="m 1786.66,2626.66 c 0,-19.32 -15.67,-35 -35,-35 -19.32,0 -35,15.68 -35,35 0,19.33 15.68,35 35,35 19.33,0 35,-15.67 35,-35" /><path
           inkscape:connector-curvature="0"
           id="path318"
           style="fill:none;stroke:#0000ff;stroke-width:5;stroke-linecap:butt;stroke-linejoin:round;stroke-miterlimit:10;stroke-dasharray:none;stroke-opacity:1"
           d="m 3202.5,3155.83 c 0,-19.33 -15.67,-35 -35,-35 -19.33,0 -35,15.67 -35,35 0,19.33 15.67,35 35,35 19.33,0 35,-15.67 35,-35" /><path
           inkscape:connector-curvature="0"
           id="path320"
           style="fill:none;stroke:#0000ff;stroke-width:5;stroke-linecap:butt;stroke-linejoin:round;stroke-miterlimit:10;stroke-dasharray:none;stroke-opacity:1"
           d="m 3557.5,4828.33 c 0,-19.33 -15.67,-35 -35,-35 -19.33,0 -35,15.67 -35,35 0,19.33 15.67,35 35,35 19.33,0 35,-15.67 35,-35" /><path
           inkscape:connector-curvature="0"
           id="path322"
           style="fill:none;stroke:#0000ff;stroke-width:5;stroke-linecap:butt;stroke-linejoin:round;stroke-miterlimit:10;stroke-dasharray:none;stroke-opacity:1"
           d="m 4604.16,5444.16 c 0,-19.32 -15.67,-35 -35,-35 -19.32,0 -35,15.68 -35,35 0,19.33 15.68,35 35,35 19.33,0 35,-15.67 35,-35" /></g></g></g></svg>